# xmcd
# Track frame offsets:
# 150
# 11737
# 22745
# 34965
# 47047
# 61822
# 73669
# 85927
# 99501
# 112730
# 125671
# 139858
# 152770
# 163213
# 177831
# 189972
# 202259
# 215257
#
# Disc length: 3052 seconds
# Revision: 0
# Processed by: cddbd v1.4PL0 Copyright (c) Steve Scherf et al.
# Submitted via: VisiTrax 2.9.7.197 - For more info visit www.synapsa.com
#
DISCID=f60bea12
DTITLE=Eddy Arnold - FFamous Country Music Makers
DYEAR=2001
DGENRE=
TTITLE0=Bouquet Of Roses
TTITLE1=It's A Sin
TTITLE2=I'll Hold You In My Heart
TTITLE3=I Couldn't Believe It Was True
TTITLE4=Many Years Ago
TTITLE5=It Makes No Diffrence Now,
TTITLE6=The Prisoners Song
TTITLE7=Molly Darling
TTITLE8=Who At My Door Is Standing
TTITLE9=Then I Turned and Walked Slowly Away
TTITLE10=I'm Thinking Tonight Of My Blue Eyes
TTITLE11=7 Years With The Wrong Woman
TTITLE12=Wondering What To Do
TTITLE13=Rockin' Alone In An Old Rocking Chair
TTITLE14=Texarkana Baby
TTITLE15=I Walk Alone
TTITLE16=Anytime
TTITLE17=The Cattle Call
EXTD=(August 17, 2001)  -  Pulse - Import
EXTT0=
EXTT1=
EXTT2=
EXTT3=
EXTT4=
EXTT5=
EXTT6=
EXTT7=
EXTT8=
EXTT9=
EXTT10=
EXTT11=
EXTT12=
EXTT13=
EXTT14=
EXTT15=
EXTT16=
EXTT17=
PLAYORDER=
